<svg xmlns="http://www.w3.org/2000/svg" width="53.729" height="134.073" viewBox="0 0 53.729 134.073">
  <g id="Group_66" data-name="Group 66" transform="translate(0)">
    <g id="noun-arrow-1564666" transform="translate(0)">
      <path id="Path_6" data-name="Path 6" d="M276.586,158.372a.831.831,0,0,0,.678-.43,2.055,2.055,0,0,0,0-2.076l-41.548-63.62,42.736-65.439a2.055,2.055,0,0,0,0-2.076.749.749,0,0,0-1.356,0L233.006,92.247l42.9,65.7a.834.834,0,0,0,.678.43Z" transform="translate(-233.006 -24.3)" fill="#fff"/>
      <path id="Path_7" data-name="Path 7" d="M267.056,121.26a.658.658,0,0,0,.53-.311,1.391,1.391,0,0,0,0-1.5L235.124,73.438l33.39-47.325a1.391,1.391,0,0,0,0-1.5.606.606,0,0,0-1.059,0l-34.45,48.827,33.52,47.511a.66.66,0,0,0,.53.311Z" transform="translate(-217.006 -6.187)" fill="#fff" opacity="0.55"/>
      <path id="Path_8" data-name="Path 8" d="M254.667,73.014a.451.451,0,0,0,.337-.156.578.578,0,0,0,0-.754l-20.65-23.116,21.241-23.777a.578.578,0,0,0,0-.754.441.441,0,0,0-.674,0L233.006,48.988l21.324,23.87a.453.453,0,0,0,.337.156Z" transform="translate(-202.006 18.059)" fill="#fff" opacity="0.36"/>
    </g>
  </g>
</svg>
