<svg xmlns="http://www.w3.org/2000/svg" width="53.729" height="134.073" viewBox="0 0 53.729 134.073">
  <g id="Group_65" data-name="Group 65" transform="translate(-1866.271 -414.927)">
    <g id="noun-arrow-1564666" transform="translate(1666.784 460.146)">
      <path id="Path_6" data-name="Path 6" d="M235.153,158.372a.831.831,0,0,1-.678-.43,2.055,2.055,0,0,1,0-2.076l41.548-63.62L233.287,26.807a2.055,2.055,0,0,1,0-2.076.749.749,0,0,1,1.356,0l44.092,67.516-42.9,65.7a.834.834,0,0,1-.678.43Z" transform="translate(-25.519 -69.52)" fill="#fff"/>
      <path id="Path_7" data-name="Path 7" d="M234.684,121.26a.658.658,0,0,1-.53-.311,1.391,1.391,0,0,1,0-1.5l32.462-46.009-33.39-47.325a1.391,1.391,0,0,1,0-1.5.606.606,0,0,1,1.059,0l34.45,48.827-33.52,47.511a.66.66,0,0,1-.53.311Z" transform="translate(-31.519 -51.407)" fill="#fff" opacity="0.55"/>
      <path id="Path_8" data-name="Path 8" d="M234.073,73.014a.451.451,0,0,1-.337-.156.578.578,0,0,1,0-.754l20.65-23.116L233.145,25.211a.578.578,0,0,1,0-.754.441.441,0,0,1,.674,0l21.915,24.531-21.324,23.87a.453.453,0,0,1-.337.156Z" transform="translate(-33.519 -27.161)" fill="#fff" opacity="0.36"/>
    </g>
  </g>
</svg>
