<svg xmlns="http://www.w3.org/2000/svg" width="31.731" height="31.879" viewBox="0 0 31.731 31.879">
  <g id="noun-share-1901956" transform="translate(-107.682 -36.586)">
    <path id="Path_1" data-name="Path 1" d="M118.149,331.063c0,.133,0,.265-.014.4,0,.064-.011.132-.018.2-.011.093.029.018.007-.043.011.029-.014.093-.018.122a5.307,5.307,0,0,1-.183.748c-.036.115-.079.226-.122.337s.018-.036.018-.039a.36.36,0,0,1-.039.086c-.032.072-.068.143-.1.211a5.1,5.1,0,0,1-.39.641c-.029.039-.068.125-.111.15.007,0,.107-.133.025-.036-.021.025-.039.05-.061.072-.079.1-.165.19-.251.279s-.175.175-.269.258c-.047.043-.093.082-.14.122-.025.021-.05.039-.072.061-.075.064.021,0,.036-.025-.047.082-.226.165-.3.215-.111.072-.226.143-.34.208s-.208.111-.315.161c-.029.014-.057.025-.086.039-.122.057.036-.011.039-.018-.029.039-.172.068-.222.086a5.281,5.281,0,0,1-.741.2c-.064.014-.129.025-.193.036a.9.9,0,0,0-.1.014c.018,0,.172-.021.043-.007s-.265.025-.394.029a5.977,5.977,0,0,1-.8-.029c-.129-.014.029,0,.043.007a.9.9,0,0,0-.1-.014c-.064-.011-.129-.021-.193-.036a3.784,3.784,0,0,1-.4-.1c-.115-.032-.229-.068-.34-.111-.061-.021-.118-.047-.179-.068-.125-.05.036.018.039.018a.589.589,0,0,1-.129-.057,5.61,5.61,0,0,1-.659-.365c-.1-.064-.19-.136-.286-.2-.079-.054.107.09.036.025-.025-.021-.05-.039-.072-.057-.054-.043-.107-.09-.158-.136a5.651,5.651,0,0,1-.519-.537c-.021-.025-.039-.05-.061-.072-.082-.1.018.029.025.036-.043-.025-.082-.111-.111-.15-.075-.107-.15-.218-.218-.333s-.118-.2-.172-.308c-.029-.057-.057-.111-.082-.168-.014-.029-.025-.057-.039-.086-.068-.143.039.107.007.018a6.122,6.122,0,0,1-.24-.752c-.029-.118-.054-.236-.072-.358,0-.032-.011-.064-.014-.1-.018-.1.014.143.007.043-.007-.075-.014-.147-.021-.222a4.955,4.955,0,0,1,0-.8c0-.064.011-.133.018-.2.011-.129,0,.029-.007.043a.9.9,0,0,0,.014-.1c.021-.136.05-.272.082-.4a7.178,7.178,0,0,1,.236-.727c.032-.09-.057.125-.018.039.014-.029.025-.057.039-.086.025-.057.054-.115.082-.172.061-.118.125-.236.193-.351s.125-.2.193-.294c.036-.05.075-.1.111-.15.054-.079-.09.107-.025.036.025-.029.05-.061.075-.09a5.253,5.253,0,0,1,.519-.537c.047-.043.093-.082.14-.122.025-.021.05-.039.072-.061.1-.082-.029.018-.036.025.054-.09.24-.172.326-.229a5.616,5.616,0,0,1,.659-.365c.029-.014.057-.025.086-.039.086-.043-.129.05-.039.018.061-.021.118-.047.179-.068.129-.047.258-.09.387-.125s.233-.061.351-.086c.064-.014.129-.025.19-.036.032,0,.064-.011.1-.014.09-.014-.158.014-.021,0a5.935,5.935,0,0,1,.8-.029c.132,0,.265.018.394.029.093.011.018-.029-.043-.007.014-.007.086.014.1.014.072.011.143.025.215.039a5.243,5.243,0,0,1,.738.208c.061.021.118.047.179.068.09.032-.125-.057-.039-.018.029.014.057.025.086.039.122.057.24.118.358.183s.2.118.3.183.272.14.326.229c0-.007-.132-.107-.036-.025.025.021.05.039.072.061.047.039.093.082.14.122q.14.124.269.258c.086.09.168.183.251.279.021.025.039.05.061.072.047.057.054.014-.025-.036.047.029.093.125.125.168a5.3,5.3,0,0,1,.387.645c.029.057.057.115.082.172.014.029.025.057.039.086.043.086-.05-.133-.018-.039.043.129.1.251.14.38a4.992,4.992,0,0,1,.179.752.9.9,0,0,0,.014.1c0-.018-.018-.172-.007-.043.007.064.014.133.018.2.007.14.011.272.014.4a.716.716,0,0,0,1.432,0,5.943,5.943,0,0,0-1.085-3.423,6.083,6.083,0,0,0-2.858-2.177,5.982,5.982,0,0,0-6.56,1.773,6.077,6.077,0,0,0-1.379,3.4,5.936,5.936,0,0,0,3.423,5.819,6.1,6.1,0,0,0,3.728.43,5.975,5.975,0,0,0,4.645-4.841,6.935,6.935,0,0,0,.086-.981.716.716,0,0,0-1.432,0Z" transform="translate(0 -269.637)" fill="#696969"/>
    <path id="Path_2" data-name="Path 2" d="M292.507,36.586a5.5,5.5,0,0,0-3.158,1,5.654,5.654,0,0,0-2.027,2.661,5.519,5.519,0,0,0,1.64,6.048,5.619,5.619,0,0,0,3.144,1.282,5.483,5.483,0,0,0,5.386-3.162,5.652,5.652,0,0,0,.4-3.448,5.518,5.518,0,0,0-4.455-4.294,6.251,6.251,0,0,0-.931-.086.721.721,0,0,0-.716.716.73.73,0,0,0,.716.716c.118,0,.233,0,.351.014.057,0,.115.011.172.014l.029,0c-.122-.018.039.007.05.007a4.955,4.955,0,0,1,.68.165c.107.036.208.079.315.115s-.125-.061-.039-.018c.021.011.043.018.064.029.057.025.115.054.172.082a4.939,4.939,0,0,1,.605.365c.029.021.168.1.079.054s.05.039.075.061c.1.079.19.165.279.251s.154.154.226.236c.036.039.072.082.107.125a.625.625,0,0,0,.047.054c.014.018.082.132.032.039s.036.05.054.079.061.09.093.136c.064.1.125.2.183.3s.1.193.15.294c.014.029.025.057.039.086.043.09.018-.021-.018-.039.032.018.057.143.068.179a4.808,4.808,0,0,1,.19.673c.011.057.021.111.032.168a.392.392,0,0,1,.014.1s-.021-.183-.007-.043.021.247.029.372a5.407,5.407,0,0,1-.029.723c-.014.129.021-.143,0,.029-.011.057-.018.111-.029.168-.025.125-.054.251-.09.376-.032.107-.064.215-.1.319-.018.054-.043.1-.061.158-.025.079.025-.068.025-.061s-.039.086-.05.107a4.965,4.965,0,0,1-.344.619c-.029.047-.061.09-.093.136-.018.025-.107.175-.054.079s-.036.043-.061.075l-.122.143a4.983,4.983,0,0,1-.5.487c-.025.021-.168.111-.075.061s-.057.039-.079.054c-.1.068-.193.132-.294.193s-.19.111-.29.161c-.05.025-.1.05-.15.072-.029.014-.057.025-.086.039-.1.047.029,0,.039-.018-.032.057-.276.1-.337.122-.115.036-.229.068-.347.1s-.222.05-.333.068a.782.782,0,0,0-.1.014s.15-.018.068-.011l-.222.021a4.481,4.481,0,0,1-.727,0c-.057,0-.115-.011-.172-.018-.133-.011.14.021-.029,0-.122-.018-.24-.043-.358-.072s-.218-.057-.326-.09c-.061-.018-.122-.039-.183-.061-.039-.014-.158-.036-.179-.068,0,0,.136.061.061.025-.029-.014-.057-.025-.086-.039-.05-.021-.1-.047-.15-.072-.1-.054-.208-.111-.308-.172s-.2-.125-.294-.193c-.018-.014-.107-.061-.115-.082.007.029.111.09.032.025-.029-.025-.061-.05-.09-.075a5.059,5.059,0,0,1-.487-.473c-.057-.064-.186-.168-.211-.251.029.086.072.093.029.032l-.054-.075c-.036-.05-.072-.1-.1-.154a4.222,4.222,0,0,1-.329-.6c-.014-.029-.025-.057-.039-.086-.036-.072.029.064.025.061-.029-.018-.047-.122-.061-.154-.043-.122-.082-.24-.118-.365-.029-.107-.057-.218-.079-.329-.011-.057-.021-.111-.032-.168,0-.025-.007-.05-.011-.072-.014-.09.014.158,0,.021a5.227,5.227,0,0,1-.025-.748c0-.115.014-.233.025-.347.014-.132-.025.154,0-.029.011-.064.021-.129.036-.193a4.949,4.949,0,0,1,.19-.673c.011-.029.043-.165.068-.179,0,0-.061.136-.025.061.014-.029.025-.057.039-.086.05-.107.1-.211.161-.315s.111-.19.168-.283c.029-.047.061-.093.093-.136.018-.025.118-.19.068-.1s.039-.05.061-.075l.122-.143c.079-.086.161-.172.243-.251s.161-.15.243-.218c.036-.029.082-.09.129-.1-.011,0-.14.1-.032.029l.075-.054a4.936,4.936,0,0,1,.605-.365c.05-.025.1-.05.15-.072.021-.011.043-.018.064-.029.122-.057-.036.011-.039.018.032-.054.276-.1.337-.122a4.3,4.3,0,0,1,.705-.168c.168-.029-.1.007.029,0,.057-.007.115-.011.172-.018.125-.011.251-.014.376-.014a.725.725,0,0,0,.716-.716.737.737,0,0,0-.72-.723Z" transform="translate(-167.58)" fill="#696969"/>
    <path id="Path_3" data-name="Path 3" d="M448.626,374.829a4.927,4.927,0,0,0-4.584,3.237,4.877,4.877,0,0,0,1.44,5.336,5,5,0,0,0,2.793,1.142,4.85,4.85,0,0,0,4.755-2.786,5.014,5.014,0,0,0,.358-3.065,4.869,4.869,0,0,0-3.925-3.785,5.141,5.141,0,0,0-.838-.079.721.721,0,0,0-.716.716.73.73,0,0,0,.716.716q.15,0,.3.011c.05,0,.1.007.147.014.125.011-.14-.021.029,0a4.01,4.01,0,0,1,.612.147c.09.029.179.064.269.1s-.064-.025-.061-.025.054.025.064.029c.05.025.1.047.15.072a4.02,4.02,0,0,1,.5.3c.029.021.115.064.132.1,0,0-.111-.093-.054-.039l.054.043q.118.1.226.2c.068.064.132.133.2.2.032.036.061.072.093.107a.629.629,0,0,0,.047.054c.064.075,0-.021-.025-.036.061.032.125.172.165.229.061.093.118.186.172.283s.09.168.129.254c.011.021.018.043.029.064.036.072-.029-.064-.025-.061.025.018.05.125.061.154a4.658,4.658,0,0,1,.165.58c.011.047.018.1.025.143,0,.025.007.05.011.072.014.082-.011-.068-.011-.068a2.9,2.9,0,0,0,.029.347,5.146,5.146,0,0,1-.025.623c-.007.082.011-.068.011-.068a.492.492,0,0,0-.011.072c-.007.047-.018.1-.025.143-.021.1-.043.2-.072.3s-.061.2-.1.3c-.018.047-.036.09-.05.132-.029.075.025-.064.025-.061s-.032.072-.039.086a4.02,4.02,0,0,1-.286.516c-.05.079-.107.154-.161.229s.039-.054.039-.054-.039.047-.043.054c-.036.043-.072.082-.107.125a4.416,4.416,0,0,1-.437.423l-.054.043c-.061.054.054-.043.054-.039-.014.029-.086.064-.115.082-.082.057-.168.115-.254.168s-.165.093-.247.14c-.05.025-.1.05-.15.072-.021.011-.043.018-.064.029-.082.043.129-.047.039-.018a5.535,5.535,0,0,1-.569.183c-.093.021-.19.043-.286.057l-.072.011c-.082.014.068-.011.068-.011a1.4,1.4,0,0,0-.172.018,3.959,3.959,0,0,1-.652,0c-.05,0-.1-.011-.147-.014-.082-.007.068.011.068.011a.491.491,0,0,0-.072-.011c-.1-.018-.208-.039-.312-.061a5.266,5.266,0,0,1-.569-.183c-.075-.029.064.025.061.025a.384.384,0,0,1-.086-.039c-.043-.021-.086-.039-.129-.061q-.134-.07-.269-.15c-.079-.05-.161-.1-.236-.154-.039-.029-.075-.057-.115-.082l.054.039c-.011,0-.061-.05-.072-.061a4.059,4.059,0,0,1-.437-.423c-.032-.036-.061-.072-.093-.107l-.043-.054c-.054-.061.043.054.039.054-.064-.032-.136-.19-.175-.251a4.026,4.026,0,0,1-.286-.516c-.011-.021-.018-.043-.029-.064-.036-.072.029.064.025.061-.021-.014-.043-.107-.05-.132-.039-.1-.072-.211-.1-.319s-.05-.186-.068-.283c-.011-.047-.018-.1-.025-.143,0-.025-.007-.05-.011-.072-.018-.1.014.143.007.043a5.182,5.182,0,0,1-.025-.623c0-.107.014-.215.025-.322.007-.082-.011.068-.011.068a.492.492,0,0,0,.011-.072c.011-.057.018-.111.032-.168a3.684,3.684,0,0,1,.165-.58c.018-.047.036-.09.05-.133.029-.075-.025.064-.025.061s.025-.054.029-.064c.043-.093.09-.186.14-.276s.1-.175.158-.261c.039-.061.111-.215.175-.251,0,0-.093.111-.039.054l.043-.054c.029-.036.061-.072.093-.107.068-.075.14-.15.211-.218s.136-.129.208-.19c.021-.018.125-.122.054-.047s-.021.014,0,0,.064-.047.1-.068a4.5,4.5,0,0,1,.5-.3c.043-.021.086-.043.129-.061.021-.011.043-.018.064-.029.072-.036-.064.029-.061.025.032-.05.233-.09.29-.107a4.01,4.01,0,0,1,.612-.147.427.427,0,0,0,.072-.011s-.15.018-.068.011c.05,0,.1-.011.147-.014.107-.007.218-.011.326-.014a.725.725,0,0,0,.716-.716.754.754,0,0,0-.734-.7Z" transform="translate(-314.073 -316.095)" fill="#696969"/>
    <path id="Path_4" data-name="Path 4" d="M278.652,419.979l-3.935-.43q-3.126-.344-6.249-.684c-.476-.054-.956-.1-1.432-.158a.721.721,0,0,0-.716.716.735.735,0,0,0,.716.716l3.935.43q3.126.344,6.249.684c.476.054.956.1,1.432.158a.721.721,0,0,0,.716-.716A.735.735,0,0,0,278.652,419.979Z" transform="translate(-148.249 -357.098)" fill="#696969"/>
    <path id="Path_5" data-name="Path 5" d="M228.377,170.8c-.211.351-.423.705-.634,1.056-.508.845-1.017,1.694-1.525,2.539q-.924,1.536-1.844,3.072l-1.594,2.657c-.258.43-.53.852-.773,1.293,0,.007-.007.011-.011.018a.725.725,0,0,0,.258.981.732.732,0,0,0,.981-.258c.211-.351.423-.705.634-1.056.508-.845,1.017-1.694,1.525-2.539q.924-1.536,1.844-3.072l1.594-2.657c.258-.43.53-.852.773-1.293,0-.007.007-.011.011-.018a.717.717,0,0,0-1.239-.723Z" transform="translate(-106.74 -125.096)" fill="#696969"/>
  </g>
</svg>
